<?xml version="1.0" standalone="no"?>
<!DOCTYPE svg PUBLIC "-//W3C//DTD SVG 20010904//EN"
 "http://www.w3.org/TR/2001/REC-SVG-20010904/DTD/svg10.dtd">
<svg version="1.0" xmlns="http://www.w3.org/2000/svg"
 width="1024.000000pt" height="1024.000000pt" viewBox="0 0 1024.000000 1024.000000"
 preserveAspectRatio="xMidYMid meet">

<g transform="translate(0.000000,1024.000000) scale(0.100000,-0.100000)"
fill="#000000" stroke="none">
<path d="M5053 8823 c-146 -114 -499 -346 -663 -437 -113 -63 -311 -162 -420
-209 -167 -72 -539 -192 -720 -232 -371 -82 -577 -105 -931 -105 l-216 0 -7
-82 c-14 -169 -67 -348 -146 -495 -23 -43 -46 -83 -51 -89 -6 -7 71 -90 216
-234 l225 -223 -2 -1026 c-1 -1122 -4 -1057 58 -1302 34 -139 134 -409 194
-529 10 -19 21 -46 25 -60 l7 -25 -24 26 c-87 97 -245 89 -318 -17 -69 -102
-2 -256 129 -294 48 -14 125 6 166 42 19 16 45 52 58 80 l24 50 40 -73 c23
-41 71 -118 107 -173 36 -54 66 -103 66 -107 0 -5 -167 -9 -370 -9 l-370 0
-10 25 c-5 14 -20 27 -35 31 l-25 6 0 362 0 363 25 11 c65 30 64 121 -2 149
-63 26 -133 -19 -133 -85 0 -19 45 -72 61 -72 5 0 9 -162 9 -360 0 -224 -4
-360 -10 -360 -20 0 -50 -45 -50 -76 0 -24 8 -39 31 -58 39 -33 79 -33 117 -1
l30 25 387 0 c296 0 389 -3 398 -13 7 -6 49 -60 94 -118 l82 -106 -35 -17
c-51 -24 -140 -111 -173 -170 -107 -188 -16 -438 197 -543 51 -25 68 -28 157
-28 92 0 105 3 169 33 47 22 88 52 130 95 l62 63 150 -128 c82 -71 160 -139
174 -151 46 -40 345 -261 434 -322 48 -33 113 -78 144 -100 32 -23 163 -112
292 -199 129 -88 252 -172 272 -188 l37 -29 23 21 c13 12 50 38 83 58 363 220
1170 821 1164 867 -1 6 -57 64 -125 129 l-123 119 -43 -37 c-185 -159 -797
-579 -950 -651 l-33 -17 -150 93 c-734 451 -1198 841 -1604 1349 -316 395
-519 823 -647 1365 l-29 120 -3 1356 -2 1356 82 7 c283 23 665 105 1013 216
229 74 560 219 770 338 163 92 449 273 545 344 l29 21 68 -50 c171 -126 516
-329 758 -447 444 -218 939 -362 1448 -423 l147 -17 0 -1288 c0 -1108 -2
-1303 -15 -1398 -42 -297 -141 -620 -272 -887 -229 -467 -524 -839 -966 -1217
l-118 -100 130 -130 129 -129 104 89 c111 96 328 309 422 414 475 532 822
1267 901 1905 13 105 -6 95 175 95 153 0 160 1 160 20 0 19 -7 20 -160 20
l-160 0 0 235 c0 129 3 235 8 235 153 7 370 6 379 -2 10 -8 13 -61 13 -205 l0
-194 -35 -35 c-52 -52 -44 -103 21 -130 30 -13 38 -13 64 1 58 30 67 90 20
137 l-30 30 0 196 c0 108 -3 207 -6 219 -6 22 -8 23 -218 25 l-211 3 -3 662
-2 661 102 99 c57 54 167 161 246 238 l143 140 -51 90 c-91 162 -144 332 -156
496 l-7 86 -291 6 c-312 7 -465 21 -677 62 -702 136 -1314 413 -1946 881
l-111 83 -59 -46z m2647 -4335 c44 -73 -25 -152 -100 -113 -83 43 -55 145 40
145 35 0 43 -4 60 -32z"/>
<path d="M4945 8169 c-616 -417 -1335 -690 -2043 -775 l-143 -18 4 -1310 3
-1311 36 -150 c152 -631 415 -1100 894 -1594 294 -304 590 -549 949 -788 69
-45 424 -266 468 -290 4 -2 19 4 35 15 15 11 74 48 132 82 216 130 592 391
772 535 l37 29 -46 51 c-26 27 -95 101 -155 163 l-109 112 -90 0 c-53 0 -89 4
-89 10 0 6 34 10 81 10 l82 0 -43 48 c-24 26 -88 94 -144 151 l-101 103 -445
-3 -445 -4 -3 23 -3 22 710 0 711 0 0 135 0 135 -175 0 -175 0 0 25 0 25 175
0 175 0 0 76 0 76 193 197 c106 108 220 224 252 259 l58 62 206 0 206 0 68 61
67 61 0 189 0 188 -98 91 -98 91 4 92 c4 92 4 92 41 122 20 16 62 54 94 84
l57 54 0 241 1 241 80 69 c100 87 117 99 129 91 22 -14 6 -37 -75 -111 l-85
-77 0 -244 0 -244 -37 -32 c-21 -17 -64 -56 -95 -86 l-58 -54 0 -62 0 -63 95
-88 95 -89 0 -213 0 -213 -82 -80 -82 -79 -205 0 -206 1 -232 -238 -232 -238
-1 -68 0 -67 468 2 467 3 48 80 c115 194 212 409 280 620 39 123 101 397 116
520 18 149 23 616 16 1585 l-8 967 -71 7 c-213 20 -510 77 -735 142 -473 137
-937 359 -1426 683 -55 36 -102 67 -105 67 -3 1 -77 -47 -165 -107z m1212
-826 c5 -15 -36 -28 -49 -15 -6 6 -7 15 -3 22 9 14 47 9 52 -7z m473 -269 l0
-197 170 -171 170 -171 0 368 0 367 25 0 25 0 0 -473 0 -474 -185 -174 -185
-173 0 -556 c0 -649 19 -553 -156 -785 -179 -239 -265 -337 -473 -545 -198
-198 -336 -321 -535 -479 -60 -47 -167 -132 -238 -189 l-130 -102 -91 73
c-120 95 -137 107 -162 107 -12 0 -45 7 -74 16 -42 12 -67 30 -126 87 -40 40
-86 97 -104 128 -21 38 -79 101 -182 199 -229 218 -433 452 -663 759 l-106
142 0 568 0 568 -267 273 c-148 150 -272 279 -276 286 -9 17 -1 34 16 33 7 0
131 -123 277 -273 240 -248 290 -294 290 -267 0 4 18 29 40 54 22 25 40 48 40
53 0 6 -132 143 -497 514 -79 79 -143 147 -143 151 0 15 32 18 53 4 12 -8 101
-96 197 -197 96 -100 232 -241 302 -313 l127 -130 78 80 c43 44 125 129 181
188 l103 109 207 1 c190 2 209 4 234 22 15 11 32 31 38 45 5 14 11 112 13 217
l2 193 493 0 492 0 0 -190 c0 -220 4 -236 74 -270 43 -20 58 -21 241 -19 l195
2 31 -29 c18 -16 123 -131 236 -256 112 -125 207 -229 211 -232 5 -3 60 43
123 102 63 59 145 135 182 169 l67 61 0 65 0 65 -197 195 -198 196 3 200 3
201 24 0 25 0 0 -196z m-3372 -991 c177 -180 213 -228 175 -228 -14 0 -413
394 -413 408 0 6 -18 7 -42 4 -27 -4 -37 -2 -27 4 7 5 36 9 64 9 l50 0 193
-197z m-295 160 c-7 -2 -19 -2 -25 0 -7 3 -2 5 12 5 14 0 19 -2 13 -5z m44 1
c-3 -3 -12 -4 -19 -1 -8 3 -5 6 6 6 11 1 17 -2 13 -5z m4203 -62 c0 -12 -51
-64 -197 -201 l-133 -124 0 -264 0 -263 -25 0 -25 0 0 279 0 278 68 60 c37 33
112 102 167 152 65 60 107 91 122 91 13 0 23 -4 23 -8z m-3951 -444 l191 -187
0 -279 0 -280 -115 -107 -115 -107 0 -196 0 -196 57 -58 57 -58 201 0 200 0
60 -68 c72 -81 208 -224 367 -387 l118 -120 -7 -355 c-5 -301 -4 -357 8 -367
11 -8 174 -14 607 -19 545 -7 592 -8 592 -24 0 -15 -47 -17 -596 -24 -660 -7
-626 -10 -660 56 -15 29 -16 70 -13 374 l4 341 -250 266 -250 267 -200 0 -200
0 -77 77 -78 78 0 216 0 216 73 69 c39 38 89 84 110 101 20 18 37 34 37 35 0
2 -106 2 -235 0 l-235 -3 0 31 0 30 245 0 245 0 0 236 0 237 -87 86 c-255 251
-313 322 -258 309 8 -2 99 -87 204 -190z m3909 -716 c2 -14 -2 -22 -12 -22
-19 0 -29 17 -22 36 8 22 30 12 34 -14z"/>
<path d="M4800 6706 c0 -152 -17 -204 -86 -271 -80 -77 -117 -88 -326 -93
l-177 -4 -57 -61 c-201 -214 -257 -277 -307 -338 l-37 -46 0 -474 c0 -549 -10
-489 120 -669 102 -140 128 -173 301 -370 160 -182 285 -304 470 -458 136
-113 409 -322 420 -322 14 0 239 168 354 264 261 217 458 409 649 633 117 138
300 385 317 430 6 15 9 209 9 495 l-1 469 -46 52 c-51 57 -171 184 -304 320
l-85 87 -162 0 c-189 0 -236 12 -317 83 -81 71 -99 119 -103 265 l-4 122 -314
0 -314 0 0 -114z m501 -126 c11 -6 43 -48 73 -93 85 -132 167 -202 333 -285
151 -76 163 -94 163 -240 l0 -76 149 -146 149 -145 7 -211 c4 -117 4 -238 0
-270 l-7 -59 -177 -180 c-98 -99 -257 -261 -354 -360 l-176 -180 -339 -3 -339
-3 -224 228 c-124 125 -286 292 -362 369 l-137 141 0 254 0 254 68 70 c38 39
110 110 160 159 l92 89 0 103 c0 96 2 104 26 134 15 18 70 53 128 82 185 93
242 141 314 265 40 68 64 96 92 106 28 10 341 7 361 -3z"/>
<path d="M4950 6408 c-44 -68 -120 -149 -192 -205 -58 -44 -241 -143 -265
-143 -10 0 -13 -28 -13 -118 l0 -118 -155 -153 -155 -153 0 -198 0 -198 72
-78 c82 -89 272 -287 458 -476 l126 -128 295 0 295 0 195 198 c299 305 424
435 442 462 15 21 17 55 17 230 l0 205 -150 151 -150 150 0 107 0 107 -102 50
c-56 28 -127 68 -157 87 -68 45 -209 185 -236 236 l-20 37 -136 0 -136 0 -33
-52z m297 -815 c260 -246 343 -329 343 -342 0 -8 -82 -94 -182 -191 -216 -209
-284 -270 -301 -270 -16 0 -457 443 -457 459 0 20 456 463 472 458 4 -1 60
-52 125 -114z"/>
<path d="M5080 5517 c-182 -167 -280 -262 -280 -270 0 -11 300 -317 310 -317
6 1 78 67 229 213 l115 111 -90 84 c-49 46 -123 114 -164 152 l-76 68 -44 -41z"/>
<path d="M1980 4883 c-45 -16 -52 -72 -14 -102 34 -27 50 -26 79 3 22 22 23
28 14 56 -7 18 -22 35 -36 41 -13 5 -25 9 -26 8 -1 0 -9 -3 -17 -6z"/>
<path d="M7970 3850 c-25 -25 -26 -52 -2 -73 21 -19 45 -21 73 -7 27 15 25 64
-3 84 -30 21 -44 20 -68 -4z"/>
<path d="M6060 3415 l0 -135 181 0 180 0 -3 -22 c-3 -23 -5 -23 -180 -26
l-176 -2 -4 -130 -3 -130 -33 -32 c-31 -31 -36 -33 -106 -33 l-73 0 135 -140
c74 -77 138 -141 142 -143 4 -2 70 57 145 129 76 73 149 141 162 153 42 36
284 303 355 392 56 70 141 190 172 242 6 9 -86 12 -443 12 l-451 0 0 -135z"/>
<path d="M7871 3443 c0 -24 1 -25 8 -8 6 14 21 22 52 26 l44 6 -52 1 c-52 2
-53 1 -52 -25z"/>
<path d="M8238 3463 c173 -2 262 -7 262 -14 0 -5 5 -7 10 -4 32 20 -24 25
-268 23 l-267 -3 263 -2z"/>
<path d="M7871 3354 c0 -11 3 -14 6 -6 3 7 2 16 -1 19 -3 4 -6 -2 -5 -13z"/>
<path d="M5542 3229 c2 -4 63 -70 137 -148 l133 -141 74 0 c109 0 114 7 114
165 l0 124 -230 3 c-127 2 -229 0 -228 -3z"/>
<path d="M7283 2441 c1 -5 -15 -24 -35 -43 -49 -44 -54 -67 -23 -101 48 -51
111 -45 144 14 12 22 12 29 0 55 -8 16 -24 33 -37 39 -12 5 -25 18 -28 27 -5
18 -26 26 -21 9z"/>
<path d="M3645 2073 c-54 -13 -82 -68 -61 -118 26 -63 97 -75 147 -26 37 37
37 72 2 110 -30 31 -56 41 -88 34z"/>
</g>
</svg>
